<?xml version="1.0" encoding="UTF-8"?>
<svg width="300" height="200" viewBox="0 0 300 200" xmlns="http://www.w3.org/2000/svg">
  <!-- Background -->
  <rect x="0" y="0" width="300" height="200" rx="20" fill="#F8F8FF" />
  <ellipse cx="150" cy="180" rx="120" ry="15" fill="#EFEFEF" opacity="0.5" />
  
  <!-- Male Avatar (Left) -->
  <!-- Head -->
  <circle cx="110" cy="90" r="40" fill="#FFDBAC" />
  
  <!-- Hair -->
  <path d="M80 65c0-20 15-30 30-30s30 10 30 30c0 0 5 15-5 25 0 0-5-15-25-15s-25 15-25 15c-10-10-5-25-5-25z" fill="#4A2C17" />
  
  <!-- Bangs -->
  <path d="M85 55c0 0 10-15 25-15s25 15 25 15c0 0-10-5-25-5s-25 5-25 5z" fill="#6E4C34" />
  
  <!-- Eyes -->
  <ellipse cx="100" cy="85" rx="5" ry="7" fill="white" />
  <ellipse cx="125" cy="85" rx="5" ry="7" fill="white" />
  <circle cx="100" cy="87" r="3" fill="#3C6478" />
  <circle cx="125" cy="87" r="3" fill="#3C6478" />
  <circle cx="102" cy="85" r="1" fill="white" />
  <circle cx="127" cy="85" r="1" fill="white" />
  
  <!-- Eyebrows -->
  <path d="M95 75c2-3 8-3 10 0" stroke="#4A2C17" stroke-width="2" stroke-linecap="round" fill="none" />
  <path d="M120 75c2-3 8-3 10 0" stroke="#4A2C17" stroke-width="2" stroke-linecap="round" fill="none" />
  
  <!-- Smile -->
  <path d="M105 100c0 0 3 5 10 5" stroke="#FF6B6B" stroke-width="2" stroke-linecap="round" fill="none" />
  
  <!-- Blush - subtle for male avatar -->
  <ellipse cx="90" cy="95" rx="6" ry="3" fill="#FF9999" opacity="0.3" />
  
  <!-- Body/Shirt -->
  <path d="M90 130c0 0 5-15 20-15s20 15 20 15v40H90v-40z" fill="#6B9BD1" />
  
  <!-- Collar -->
  <path d="M100 130c0 0 3-2 10-2s10 2 10 2" stroke="white" stroke-width="2" fill="none" />
  
  <!-- Male arm around female -->
  <path d="M130 140c0 0 20 0 40-10" stroke="#6B9BD1" stroke-width="15" fill="none" stroke-linecap="round" />
  <ellipse cx="155" cy="135" rx="8" ry="6" transform="rotate(-10)" fill="#FFDBAC" /> <!-- Hand -->
  
  <!-- Female Avatar (Right) -->
  <!-- Head -->
  <circle cx="190" cy="85" r="40" fill="#FFDBAC" />
  
  <!-- Hair -->
  <path d="M155 65c0-20 15-35 35-35s35 15 35 35c0 0-5 40-35 40s-35-40-35-40z" fill="#8D5524" />
  <path d="M155 65c-3 8-3 25 8 35" stroke="#8D5524" stroke-width="12" fill="none" />
  
  <!-- Bangs -->
  <path d="M165 50c0 0 5-10 25-10s25 10 25 10c0 0-5-5-25-5s-25 5-25 5z" fill="#8D5524" />
  
  <!-- Eyes -->
  <ellipse cx="175" cy="80" rx="6" ry="8" fill="white" />
  <ellipse cx="205" cy="80" rx="6" ry="8" fill="white" />
  <circle cx="175" cy="82" r="3" fill="#704241" />
  <circle cx="205" cy="82" r="3" fill="#704241" />
  <circle cx="177" cy="80" r="1" fill="white" />
  <circle cx="207" cy="80" r="1" fill="white" />
  
  <!-- Blush -->
  <ellipse cx="165" cy="90" rx="8" ry="4" fill="#FFB6C1" opacity="0.6" />
  <ellipse cx="215" cy="90" rx="8" ry="4" fill="#FFB6C1" opacity="0.6" />
  
  <!-- Eyebrows -->
  <path d="M170 70c0 0 3-3 8 0" stroke="#8D5524" stroke-width="2" stroke-linecap="round" fill="none" />
  <path d="M200 70c0 0 3-3 8 0" stroke="#8D5524" stroke-width="2" stroke-linecap="round" fill="none" />
  
  <!-- Eyelashes -->
  <line x1="170" y1="75" x2="168" y2="72" stroke="#333" stroke-width="1" />
  <line x1="175" y1="74" x2="175" y2="71" stroke="#333" stroke-width="1" />
  <line x1="180" y1="75" x2="182" y2="72" stroke="#333" stroke-width="1" />
  <line x1="200" y1="75" x2="198" y2="72" stroke="#333" stroke-width="1" />
  <line x1="205" y1="74" x2="205" y2="71" stroke="#333" stroke-width="1" />
  <line x1="210" y1="75" x2="212" y2="72" stroke="#333" stroke-width="1" />
  
  <!-- Smile -->
  <path d="M180 100c0 0 5 5 10 5s10-5 10-5" stroke="#FF6B6B" stroke-width="2" stroke-linecap="round" fill="none" />
  
  <!-- Body/Dress -->
  <path d="M170 125c0 0 5-15 20-15s20 15 20 15v45h-40v-45z" fill="#FF9EAA" />
  
  <!-- Female arm around male -->
  <path d="M170 140c0 0-10 0-20-10" stroke="#FF9EAA" stroke-width="14" fill="none" stroke-linecap="round" />
  <ellipse cx="135" cy="125" rx="7" ry="5" transform="rotate(10)" fill="#FFDBAC" /> <!-- Hand -->
  
  <!-- Accessories -->
  <circle cx="170" cy="60" r="4" fill="#FF9EAA" /> <!-- hair accessory -->
  
  <!-- Hearts above -->
  <path d="M138 40c-3-3-7-3-10 0-3 3-3 7 0 10l10 10 10-10c3-3 3-7 0-10-3-3-7-3-10 0z" fill="#FF6B6B" opacity="0.9" />
  <path d="M158 25c-2-2-5-2-7 0-2 2-2 5 0 7l7 7 7-7c2-2 2-5 0-7-2-2-5-2-7 0z" fill="#FF6B6B" opacity="0.7" />
  <path d="M178 30c-1.5-1.5-3.5-1.5-5 0-1.5 1.5-1.5 3.5 0 5l5 5 5-5c1.5-1.5 1.5-3.5 0-5-1.5-1.5-3.5-1.5-5 0z" fill="#FF6B6B" opacity="0.5" />
</svg> 