<?xml version="1.0" encoding="UTF-8"?>
<svg width="200" height="200" viewBox="0 0 200 200" xmlns="http://www.w3.org/2000/svg">
  <!-- Background circle -->
  <circle cx="100" cy="100" r="80" fill="#FFE6EE" />
  
  <!-- Head -->
  <circle cx="100" cy="95" r="55" fill="#FFDFC4" />
  
  <!-- Hair -->
  <path d="M45 75a55 55 0 0 1 110 0v25c0 0-25 40-55 40s-55-40-55-40V75z" fill="#6E3C0B" />
  
  <!-- Hair highlights -->
  <path d="M60 70a40 40 0 0 1 80 0v15c0 0-10 20-40 20s-40-20-40-20V70z" fill="#9E6C31" />
  
  <!-- Special bangs -->
  <path d="M70 60c0 0 10-15 30-15s30 15 30 15c0 0-10-5-30-5s-30 5-30 5z" fill="#6E3C0B" />
  <path d="M100 55c-15 0-25 10-25 10s10-5 25-5 25 5 25 5-10-10-25-10z" fill="#6E3C0B" />
  
  <!-- Eyes -->
  <ellipse cx="80" cy="90" rx="8" ry="10" fill="white" />
  <ellipse cx="120" cy="90" rx="8" ry="10" fill="white" />
  
  <!-- Pupils with heart shape -->
  <path d="M77 92c0-2 1.5-3 3-3s3 1 3 3c0 1-3 3-3 3s-3-2-3-3z" fill="#B03060" />
  <path d="M117 92c0-2 1.5-3 3-3s3 1 3 3c0 1-3 3-3 3s-3-2-3-3z" fill="#B03060" />
  
  <!-- Eyelashes -->
  <line x1="74" y1="83" x2="71" y2="79" stroke="#333" stroke-width="1.5" />
  <line x1="80" y1="82" x2="80" y2="78" stroke="#333" stroke-width="1.5" />
  <line x1="86" y1="83" x2="89" y2="79" stroke="#333" stroke-width="1.5" />
  <line x1="114" y1="83" x2="111" y2="79" stroke="#333" stroke-width="1.5" />
  <line x1="120" y1="82" x2="120" y2="78" stroke="#333" stroke-width="1.5" />
  <line x1="126" y1="83" x2="129" y2="79" stroke="#333" stroke-width="1.5" />
  
  <!-- Blush -->
  <ellipse cx="70" cy="105" rx="12" ry="6" fill="#FF9494" opacity="0.6" />
  <ellipse cx="130" cy="105" rx="12" ry="6" fill="#FF9494" opacity="0.6" />
  
  <!-- Eyebrows -->
  <path d="M72 78c0 0 6-4 12 0" stroke="#6E3C0B" stroke-width="2" stroke-linecap="round" fill="none" />
  <path d="M116 78c0 0 6-4 12 0" stroke="#6E3C0B" stroke-width="2" stroke-linecap="round" fill="none" />
  
  <!-- Mouth -->
  <path d="M85 112c0 0 6 7 15 7s15-7 15-7" stroke="#FF5D8F" stroke-width="2" stroke-linecap="round" fill="none" />
  
  <!-- Body/Dress -->
  <path d="M70 150c0 0 10-20 30-20s30 20 30 20v30H70v-30z" fill="#FFB7CE" />
  
  <!-- Accessories -->
  <path d="M80 135c0 0 10 10 20 10s20-10 20-10" stroke="white" stroke-width="3" fill="none" />
  <circle cx="75" cy="65" r="6" fill="#FFB7CE" />
  <circle cx="125" cy="65" r="6" fill="#FFB7CE" />
  <path d="M75 65l-5-5M75 65l-5 5M125 65l5-5M125 65l5 5" stroke="#FFB7CE" stroke-width="2" />
  
  <!-- Stars in hair -->
  <path d="M60 80l1 3 3-1-2 2 2 2-3-1-1 3-1-3-3 1 2-2-2-2 3 1z" fill="#FFD700" />
  <path d="M140 80l1 3 3-1-2 2 2 2-3-1-1 3-1-3-3 1 2-2-2-2 3 1z" fill="#FFD700" />
</svg> 