<svg xmlns="http://www.w3.org/2000/svg" width="100" height="100" viewBox="0 0 100 100" fill="none">
  <defs>
    <radialGradient id="moonGlow" cx="50%" cy="50%" r="50%" fx="50%" fy="50%">
      <stop offset="0%" stop-color="#FFF4CC" />
      <stop offset="80%" stop-color="#FFE484" />
      <stop offset="100%" stop-color="#FFDA5C" />
    </radialGradient>
    <filter id="moonShadow" x="0" y="0" width="200%" height="200%">
      <feDropShadow dx="0" dy="0" stdDeviation="3" flood-color="#FFE69E" flood-opacity="0.5"/>
    </filter>
  </defs>
  
  <!-- Moon body -->
  <circle cx="50" cy="50" r="40" fill="url(#moonGlow)" filter="url(#moonShadow)" />
  
  <!-- Moon craters -->
  <circle cx="35" cy="35" r="7" fill="#FFE69E" opacity="0.6" />
  <circle cx="65" cy="40" r="5" fill="#FFE69E" opacity="0.6" />
  <circle cx="45" cy="60" r="6" fill="#FFE69E" opacity="0.6" />
  <circle cx="60" cy="65" r="4" fill="#FFE69E" opacity="0.6" />
  
  <!-- Moon face -->
  <g transform="translate(50,50) scale(0.8)">
    <!-- Eyes -->
    <ellipse cx="-10" cy="-5" rx="6" ry="6" fill="#FFB423" />
    <ellipse cx="10" cy="-5" rx="6" ry="6" fill="#FFB423" />
    
    <!-- Sleeping eyes (curved lines) -->
    <path d="M-15,-5 Q-10,-8 -5,-5" stroke="#6E5A0D" stroke-width="2" fill="none" />
    <path d="M5,-5 Q10,-8 15,-5" stroke="#6E5A0D" stroke-width="2" fill="none" />
    
    <!-- Rosy cheeks -->
    <circle cx="-15" cy="8" r="5" fill="#FFBEBE" opacity="0.6" />
    <circle cx="15" cy="8" r="5" fill="#FFBEBE" opacity="0.6" />
    
    <!-- Smile -->
    <path d="M-10,10 Q0,18 10,10" stroke="#6E5A0D" stroke-width="2" fill="none" />
  </g>
  
  <!-- Stars around the moon -->
  <circle cx="15" cy="25" r="1.5" fill="#FFFFFF" opacity="0.8" />
  <circle cx="20" cy="80" r="2" fill="#FFFFFF" opacity="0.8" />
  <circle cx="80" cy="15" r="2" fill="#FFFFFF" opacity="0.8" />
  <circle cx="85" cy="70" r="1.5" fill="#FFFFFF" opacity="0.8" />
  <circle cx="40" cy="15" r="1" fill="#FFFFFF" opacity="0.8" />
  <circle cx="75" cy="40" r="1" fill="#FFFFFF" opacity="0.8" />
</svg> 