<svg xmlns="http://www.w3.org/2000/svg" width="100" height="100" viewBox="0 0 100 100" fill="none">
  <defs>
    <linearGradient id="envelope-gradient" x1="0%" y1="0%" x2="100%" y2="100%">
      <stop offset="0%" stop-color="#F8E8FB" />
      <stop offset="50%" stop-color="#F0D4FF" />
      <stop offset="100%" stop-color="#E5C2FF" />
    </linearGradient>
    <linearGradient id="paper-gradient" x1="0%" y1="0%" x2="100%" y2="100%">
      <stop offset="0%" stop-color="#FFFFFF" />
      <stop offset="100%" stop-color="#F8F8F8" />
    </linearGradient>
  </defs>
  
  <!-- Envelope base -->
  <rect x="15" y="25" width="70" height="50" rx="3" fill="url(#envelope-gradient)" stroke="#C48EFF" stroke-width="1.5"/>
  
  <!-- Envelope flap -->
  <path d="M15 28L50 50L85 28V25C85 23.8954 84.1046 23 83 23H17C15.8954 23 15 23.8954 15 25V28Z" fill="#D9A6FF" stroke="#C48EFF" stroke-width="1.5"/>
  
  <!-- Letter peeking out -->
  <rect x="20" y="30" width="60" height="40" rx="2" fill="url(#paper-gradient)" />
  
  <!-- Heart seal -->
  <circle cx="50" cy="38" r="8" fill="#FF3366"/>
  <path d="M50 34C51 31 55 31 56 34C57 37 53 41 50 42C47 41 43 37 44 34C45 31 49 31 50 34Z" fill="#FFFFFF"/>
  
  <!-- Note lines -->
  <line x1="30" y1="48" x2="70" y2="48" stroke="#C0C0C0" stroke-width="1" />
  <line x1="30" y1="54" x2="70" y2="54" stroke="#C0C0C0" stroke-width="1" />
  <line x1="30" y1="60" x2="50" y2="60" stroke="#C0C0C0" stroke-width="1" />
  
  <!-- Sparkles -->
  <circle cx="25" cy="20" r="1.5" fill="#FFC0CB" />
  <circle cx="75" cy="20" r="1.5" fill="#FFC0CB" />
  <circle cx="20" cy="70" r="1.5" fill="#FFC0CB" />
  <circle cx="80" cy="70" r="1.5" fill="#FFC0CB" />
</svg> 