<svg xmlns="http://www.w3.org/2000/svg" width="100" height="100" viewBox="0 0 100 100" fill="none">
  <defs>
    <linearGradient id="minimal-heart-gradient" x1="0%" y1="0%" x2="100%" y2="100%">
      <stop offset="0%" stop-color="#F8F8F8" />
      <stop offset="50%" stop-color="#FFFFFF" />
      <stop offset="100%" stop-color="#F0F0F0" />
    </linearGradient>
  </defs>
  <path d="M50 85C47.9167 85 45.8333 84.1667 44.1667 82.9167C28.75 70.8333 19.1667 62.0833 13.3333 54.1667C6.25 44.5833 4.16667 35.8333 4.16667 27.0833C4.16667 11.25 16.6667 2.5 32.5 2.5C40 2.5 47.0833 5.83333 50 11.25C52.9167 5.83333 60 2.5 67.5 2.5C83.3333 2.5 95.8333 11.25 95.8333 27.0833C95.8333 35.8333 93.75 44.5833 86.6667 54.1667C80.8333 62.0833 71.25 70.8333 55.8333 82.9167C54.1667 84.1667 52.0833 85 50 85Z" fill="url(#minimal-heart-gradient)" stroke="#CCCCCC" stroke-width="2"/>
  <path d="M50 85C47.9167 85 45.8333 84.1667 44.1667 82.9167C28.75 70.8333 19.1667 62.0833 13.3333 54.1667C6.25 44.5833 4.16667 35.8333 4.16667 27.0833C4.16667 11.25 16.6667 2.5 32.5 2.5C40 2.5 47.0833 5.83333 50 11.25C52.9167 5.83333 60 2.5 67.5 2.5C83.3333 2.5 95.8333 11.25 95.8333 27.0833C95.8333 35.8333 93.75 44.5833 86.6667 54.1667C80.8333 62.0833 71.25 70.8333 55.8333 82.9167C54.1667 84.1667 52.0833 85 50 85Z" stroke="#E0E0E0" stroke-width="1" stroke-dasharray="2 2"/>
  
  <!-- Add a subtle hint of pink -->
  <path d="M50 11.25C52.9167 5.83333 60 2.5 67.5 2.5C83.3333 2.5 95.8333 11.25 95.8333 27.0833C95.8333 35.8333 93.75 44.5833 86.6667 54.1667C80.8333 62.0833 71.25 70.8333 55.8333 82.9167C54.1667 84.1667 52.0833 85 50 85Z" fill="#FFEEEE" opacity="0.3"/>
</svg> 