<svg xmlns="http://www.w3.org/2000/svg" width="100" height="100" viewBox="0 0 100 100" fill="none">
  <path d="M85 40C85 29 76 20 65 20H35C24 20 15 29 15 40V50C15 61 24 70 35 70H42.5C45.5 70 48 67.5 48 64.5V59C48 56.5 50 54.5 52.5 54.5H47.5C50 54.5 52 56.5 52 59V64.5C52 67.5 54.5 70 57.5 70H65C76 70 85 61 85 50V40Z" fill="#8A2BE2" stroke="#7B68EE" stroke-width="2"/>
  <linearGradient id="controller-gradient" x1="0%" y1="0%" x2="100%" y2="100%">
    <stop offset="0%" stop-color="#FF00FF" />
    <stop offset="100%" stop-color="#00FFFF" />
  </linearGradient>
  <path d="M85 40C85 29 76 20 65 20H35C24 20 15 29 15 40V50C15 61 24 70 35 70H42.5C45.5 70 48 67.5 48 64.5V59C48 56.5 50 54.5 52.5 54.5H47.5C50 54.5 52 56.5 52 59V64.5C52 67.5 54.5 70 57.5 70H65C76 70 85 61 85 50V40Z" fill="url(#controller-gradient)" fill-opacity="0.3" stroke="#7B68EE" stroke-width="2"/>
  <circle cx="70" cy="40" r="5" fill="#FF1493"/>
  <circle cx="75" cy="50" r="5" fill="#00FFFF"/>
  <rect x="25" y="40" width="20" height="5" rx="2" fill="#FFFF00"/>
  <rect x="32.5" y="32.5" width="5" height="20" rx="2" fill="#00FF00"/>
  <circle cx="70" cy="40" r="3" fill="white"/>
  <circle cx="75" cy="50" r="3" fill="white"/>
</svg> 