<svg xmlns="http://www.w3.org/2000/svg" width="100" height="100" viewBox="0 0 100 100" fill="none">
  <defs>
    <linearGradient id="rainbow-gradient" x1="0%" y1="0%" x2="100%" y2="0%">
      <stop offset="0%" stop-color="#FF0000" />
      <stop offset="16.67%" stop-color="#FF9900" />
      <stop offset="33.33%" stop-color="#FFFF00" />
      <stop offset="50%" stop-color="#00FF00" />
      <stop offset="66.67%" stop-color="#0099FF" />
      <stop offset="83.33%" stop-color="#6633FF" />
      <stop offset="100%" stop-color="#FF00FF" />
    </linearGradient>
  </defs>
  <path d="M90 70H10V65C10 40 30 20 50 20C70 20 90 40 90 65V70Z" fill="url(#rainbow-gradient)" stroke="#FF8C00" stroke-width="2"/>
  <path d="M80 70H20V65C20 45 35 30 50 30C65 30 80 45 80 65V70Z" fill="#FFFFFF" stroke="#FF8C00" stroke-width="2"/>
  <path d="M70 70H30V65C30 50 40 40 50 40C60 40 70 50 70 65V70Z" fill="#FF1493" stroke="#FF8C00" stroke-width="2"/>
  <path d="M60 70H40V65C40 55 45 50 50 50C55 50 60 55 60 65V70Z" fill="#00FFFF" stroke="#FF8C00" stroke-width="2"/>
  <path d="M5 70H95" stroke="#FF8C00" stroke-width="4" stroke-linecap="round"/>
  <path d="M50 15V20" stroke="#FF8C00" stroke-width="2" stroke-linecap="round"/>
  <circle cx="50" cy="10" r="5" fill="#00FF00" stroke="#FF8C00" stroke-width="2"/>
  
  <!-- Add some party elements -->
  <circle cx="20" cy="30" r="3" fill="#FFFF00"/>
  <circle cx="30" cy="25" r="2" fill="#FF00FF"/>
  <circle cx="70" cy="30" r="3" fill="#00FFFF"/>
  <circle cx="80" cy="25" r="2" fill="#FF1493"/>
  
  <path d="M15 30L25 20" stroke="#FFFF00" stroke-width="1" stroke-linecap="round"/>
  <path d="M75 30L85 20" stroke="#00FFFF" stroke-width="1" stroke-linecap="round"/>
</svg> 