<?xml version="1.0" encoding="UTF-8"?>
<svg width="200" height="200" viewBox="0 0 200 200" xmlns="http://www.w3.org/2000/svg">
  <!-- Background circle -->
  <circle cx="100" cy="100" r="80" fill="#E6F2FF" />
  
  <!-- Head -->
  <circle cx="100" cy="95" r="55" fill="#FFDBAC" />
  
  <!-- Hair -->
  <path d="M50 75c0-30 20-45 50-45s50 15 50 45c0 0 5 20-10 40 0 0-5-30-40-30s-40 30-40 30c-15-20-10-40-10-40z" fill="#4A2C17" />
  
  <!-- Bangs -->
  <path d="M55 65c0 0 15-25 45-25s45 25 45 25c0 0-15-5-45-5s-45 5-45 5z" fill="#6E4C34" />
  
  <!-- Eyes -->
  <ellipse cx="80" cy="90" rx="7" ry="9" fill="white" />
  <ellipse cx="120" cy="90" rx="7" ry="9" fill="white" />
  <circle cx="80" cy="92" r="4" fill="#3C6478" />
  <circle cx="120" cy="92" r="4" fill="#3C6478" />
  <circle cx="82" cy="90" r="1.5" fill="white" />
  <circle cx="122" cy="90" r="1.5" fill="white" />
  
  <!-- Eyebrows -->
  <path d="M72 78c2-3 12-3 14 0" stroke="#4A2C17" stroke-width="2.5" stroke-linecap="round" fill="none" />
  <path d="M114 78c2-3 12-3 14 0" stroke="#4A2C17" stroke-width="2.5" stroke-linecap="round" fill="none" />
  
  <!-- Smile -->
  <path d="M85 110c0 0 6 8 15 8s15-8 15-8" stroke="#FF6B6B" stroke-width="2" stroke-linecap="round" fill="none" />
  
  <!-- Blush - subtle for male avatar -->
  <ellipse cx="70" cy="105" rx="8" ry="4" fill="#FF9999" opacity="0.3" />
  <ellipse cx="130" cy="105" rx="8" ry="4" fill="#FF9999" opacity="0.3" />
  
  <!-- Body/Shirt -->
  <path d="M70 150c0 0 10-20 30-20s30 20 30 20v30H70v-30z" fill="#6B9BD1" />
  
  <!-- Collar -->
  <path d="M85 150c0 0 5-2 15-2s15 2 15 2" stroke="white" stroke-width="3" fill="none" />
  <path d="M100 150v10" stroke="white" stroke-width="3" fill="none" />
  
  <!-- Accessories: small earring -->
  <circle cx="55" cy="95" r="2" fill="#C0C0C0" />
</svg> 