<?xml version="1.0" encoding="UTF-8"?>
<svg width="200" height="200" viewBox="0 0 200 200" xmlns="http://www.w3.org/2000/svg">
  <!-- Background circle -->
  <circle cx="100" cy="100" r="80" fill="#F0FFF0" />
  
  <!-- Head -->
  <circle cx="100" cy="95" r="55" fill="#FFE0B2" />
  
  <!-- Hair modern style -->
  <path d="M55 75C55 55 70 40 100 40s45 15 45 35c0 15-5 25-15 35 0-10-5-25-30-25s-30 15-30 25c-10-10-15-20-15-35z" fill="#1A1A1A" />
  
  <!-- Hair style detail (fade on sides) -->
  <path d="M60 90c0 0 5-30 40-30s40 30 40 30" stroke="#1A1A1A" stroke-width="5" fill="none" />
  
  <!-- Top hair detail with some volume -->
  <path d="M60 60c0 0 15-25 40-25s40 25 40 25" stroke="#1A1A1A" stroke-width="15" stroke-linecap="round" fill="none" />
  
  <!-- Eyes -->
  <ellipse cx="80" cy="95" rx="8" ry="9" fill="white" />
  <ellipse cx="120" cy="95" rx="8" ry="9" fill="white" />
  <circle cx="80" cy="96" r="4" fill="#594F4F" />
  <circle cx="120" cy="96" r="4" fill="#594F4F" />
  <circle cx="78" cy="94" r="1.5" fill="white" />
  <circle cx="118" cy="94" r="1.5" fill="white" />
  
  <!-- Eyebrows -->
  <path d="M70 82c2-2 15-2 17 0" stroke="#1A1A1A" stroke-width="2.5" stroke-linecap="round" fill="none" />
  <path d="M113 82c2-2 15-2 17 0" stroke="#1A1A1A" stroke-width="2.5" stroke-linecap="round" fill="none" />
  
  <!-- Smile -->
  <path d="M90 115c0 0 4 5 10 5s10-5 10-5" stroke="#F06292" stroke-width="2" fill="none" />
  
  <!-- Very subtle blush for male -->
  <ellipse cx="65" cy="105" rx="8" ry="4" fill="#FFB6C1" opacity="0.2" />
  <ellipse cx="135" cy="105" rx="8" ry="4" fill="#FFB6C1" opacity="0.2" />
  
  <!-- Body/Shirt -->
  <path d="M70 150c0 0 10-20 30-20s30 20 30 20v30H70v-30z" fill="#5D8CAE" />
  
  <!-- T-shirt details -->
  <path d="M70 150c0 0 30-10 60 0" stroke="#4A708B" stroke-width="3" fill="none" />
  
  <!-- Shirt graphic - simple star -->
  <path d="M100 135l3 9h9l-7 5 3 8-8-6-8 6 3-8-7-5h9z" fill="#F0FFF0" />
  
  <!-- Accessories -->
  <circle cx="75" cy="80" r="1.5" fill="#1A1A1A" /> <!-- Beauty mark -->
  <circle cx="130" cy="90" r="2" fill="#FFD700" /> <!-- Small earring -->
</svg> 